<svg width="142" height="142" viewBox="0 0 142 142" fill="none" xmlns="http://www.w3.org/2000/svg">
<rect x="2.82843" y="70.769" width="96" height="96" transform="rotate(-45.0493 2.82843 70.769)" fill="#D2D2D2" fill-opacity="0.01" stroke="black" stroke-width="4"/>
<circle cx="61.2472" cy="72.5719" r="21.2472" stroke="black" stroke-width="4"/>
<path d="M64.9668 94.4243C77.7528 96.2842 89.3764 84.7137 89.3764 71.8746C89.3764 59.0355 76.5904 47.93 64.9668 50.487" stroke="black" stroke-width="4"/>
<path d="M70.5459 94.0964C83.3319 95.9563 94.9555 84.3858 94.9555 71.5467C94.9555 58.7076 82.1695 47.6021 70.5459 50.1592" stroke="black" stroke-width="4"/>
<path d="M76.5908 94.0964C89.3768 95.9563 101 84.3858 101 71.5467C101 58.7076 88.2144 47.6021 76.5908 50.1592" stroke="black" stroke-width="4"/>
<path d="M61.6434 84.4C60.1501 84.4 58.8701 84.2133 57.8034 83.84C56.7367 83.4667 55.8701 83.0133 55.2034 82.48C54.5367 81.9467 54.0301 81.4133 53.6834 80.88C53.3634 80.3467 53.1901 79.92 53.1634 79.6C53.1367 79.3067 53.2301 79.08 53.4434 78.92C53.6567 78.76 53.8701 78.68 54.0834 78.68H55.8434C56.0034 78.68 56.1234 78.7067 56.2034 78.76C56.3101 78.7867 56.4434 78.8933 56.6034 79.08C56.9501 79.4533 57.3367 79.8267 57.7634 80.2C58.1901 80.5733 58.7101 80.88 59.3234 81.12C59.9634 81.36 60.7501 81.48 61.6834 81.48C63.0434 81.48 64.1634 81.2267 65.0434 80.72C65.9234 80.1867 66.3634 79.4133 66.3634 78.4C66.3634 77.7333 66.1767 77.2 65.8034 76.8C65.4567 76.4 64.8167 76.04 63.8834 75.72C62.9767 75.4 61.7234 75.0667 60.1234 74.72C58.5234 74.3467 57.2567 73.8933 56.3234 73.36C55.3901 72.8 54.7234 72.1467 54.3234 71.4C53.9234 70.6267 53.7234 69.76 53.7234 68.8C53.7234 67.8133 54.0167 66.8667 54.6034 65.96C55.1901 65.0267 56.0434 64.2667 57.1634 63.68C58.3101 63.0933 59.7367 62.8 61.4434 62.8C62.8301 62.8 64.0167 62.9733 65.0034 63.32C65.9901 63.6667 66.8034 64.1067 67.4434 64.64C68.0834 65.1467 68.5634 65.6533 68.8834 66.16C69.2034 66.6667 69.3767 67.0933 69.4034 67.44C69.4301 67.7067 69.3501 67.9333 69.1634 68.12C68.9767 68.28 68.7634 68.36 68.5234 68.36H66.8434C66.6567 68.36 66.4967 68.32 66.3634 68.24C66.2567 68.16 66.1501 68.0667 66.0434 67.96C65.7767 67.6133 65.4567 67.2667 65.0834 66.92C64.7367 66.5733 64.2701 66.2933 63.6834 66.08C63.1234 65.84 62.3767 65.72 61.4434 65.72C60.1101 65.72 59.1101 66 58.4434 66.56C57.7767 67.12 57.4434 67.8267 57.4434 68.68C57.4434 69.1867 57.5901 69.64 57.8834 70.04C58.1767 70.44 58.7367 70.8 59.5634 71.12C60.3901 71.44 61.6167 71.7867 63.2434 72.16C65.0034 72.5067 66.3901 72.9733 67.4034 73.56C68.4167 74.1467 69.1367 74.8267 69.5634 75.6C69.9901 76.3733 70.2034 77.2667 70.2034 78.28C70.2034 79.4 69.8701 80.4267 69.2034 81.36C68.5634 82.2933 67.6034 83.04 66.3234 83.6C65.0701 84.1333 63.5101 84.4 61.6434 84.4Z" fill="black"/>
<rect x="60.3174" y="60.0183" width="2.32472" height="3.71956" fill="black"/>
<rect x="60.3174" y="82.8008" width="2.32472" height="3.71956" fill="black"/>
</svg>
