<svg width="38" height="38" viewBox="0 0 38 38" fill="none" xmlns="http://www.w3.org/2000/svg">
<g clip-path="url(#clip0_884_4258)">
<path fill-rule="evenodd" clip-rule="evenodd" d="M19.0001 0.791504C14.4895 0.793844 10.1269 2.3914 6.69223 5.2985C3.25756 8.2056 0.974865 12.2327 0.252297 16.6597C-0.470271 21.0866 0.414402 25.6248 2.74815 29.4628C5.08189 33.3007 8.71251 36.1881 12.9908 37.6087C13.9347 37.7839 14.2902 37.1989 14.2902 36.7015C14.2902 36.2041 14.2713 34.7619 14.265 33.1853C8.97939 34.3271 7.86249 30.9548 7.86249 30.9548C7.00043 28.7649 5.75453 28.1893 5.75453 28.1893C4.0304 27.0193 5.88353 27.0412 5.88353 27.0412C7.79328 27.1758 8.79693 28.9902 8.79693 28.9902C10.4896 31.8776 13.2425 31.0424 14.3248 30.5543C14.4947 29.3312 14.9887 28.499 15.533 28.0267C11.3107 27.5512 6.87458 25.9307 6.87458 18.6918C6.84841 16.8144 7.54905 14.9988 8.83153 13.6207C8.63647 13.1452 7.98519 11.2245 9.01715 8.61544C9.01715 8.61544 10.6123 8.10865 14.243 10.5519C17.3572 9.70508 20.643 9.70508 23.7572 10.5519C27.3848 8.10865 28.9767 8.61544 28.9767 8.61544C30.0118 11.2182 29.3606 13.139 29.1655 13.6207C30.4521 14.9991 31.1542 16.8178 31.1256 18.698C31.1256 25.9526 26.68 27.5512 22.4515 28.0173C23.1311 28.6054 23.7383 29.7535 23.7383 31.5179C23.7383 34.0456 23.7163 36.079 23.7163 36.7015C23.7163 37.2052 24.0592 37.7933 25.0219 37.6087C29.3008 36.188 32.9317 33.3 35.2654 29.4614C37.5992 25.6229 38.4834 21.084 37.76 16.6566C37.0366 12.2292 34.7528 8.20207 31.3169 5.29546C27.8812 2.38886 23.5175 0.792361 19.0064 0.791504H19.0001Z" fill="white"/>
<path d="M7.19498 27.9175C7.15408 28.0113 7.00306 28.0395 6.88036 27.9738C6.75766 27.9081 6.66642 27.7861 6.71047 27.6891C6.75452 27.5921 6.90239 27.5671 7.02509 27.6328C7.14779 27.6985 7.24217 27.8236 7.19498 27.9175Z" fill="white"/>
<path d="M7.96579 28.7711C7.90063 28.8038 7.82609 28.8129 7.75492 28.7969C7.68375 28.7809 7.62039 28.7409 7.57566 28.6835C7.45296 28.5522 7.42777 28.3707 7.52216 28.2894C7.61655 28.208 7.78645 28.2456 7.90916 28.377C8.03186 28.5084 8.06017 28.6898 7.96579 28.7711Z" fill="white"/>
<path d="M8.71537 29.8567C8.59896 29.938 8.40074 29.8567 8.29062 29.694C8.26017 29.6648 8.23596 29.6298 8.21942 29.5911C8.20287 29.5524 8.19434 29.5108 8.19434 29.4688C8.19434 29.4267 8.20287 29.3851 8.21942 29.3464C8.23596 29.3077 8.26017 29.2727 8.29062 29.2435C8.40703 29.1653 8.60525 29.2435 8.71537 29.4031C8.82549 29.5626 8.82863 29.7753 8.71537 29.8567Z" fill="white"/>
<path d="M9.73139 30.9078C9.62757 31.0236 9.41677 30.9923 9.24373 30.8359C9.07069 30.6794 9.02978 30.4667 9.1336 30.3541C9.23743 30.2415 9.44823 30.2728 9.62756 30.4261C9.80689 30.5793 9.84151 30.7952 9.73139 30.9078Z" fill="white"/>
<path d="M11.1561 31.5211C11.1089 31.6682 10.895 31.7338 10.681 31.6713C10.4671 31.6087 10.3255 31.4335 10.3664 31.2834C10.4073 31.1332 10.6244 31.0644 10.8415 31.1332C11.0586 31.202 11.197 31.3678 11.1561 31.5211Z" fill="white"/>
<path d="M12.7104 31.6274C12.7104 31.7807 12.5342 31.9121 12.3077 31.9152C12.0811 31.9183 11.8955 31.7932 11.8955 31.6399C11.8955 31.4866 12.0717 31.3552 12.2982 31.3521C12.5247 31.349 12.7104 31.471 12.7104 31.6274Z" fill="white"/>
<path d="M14.1584 31.3869C14.1868 31.5401 14.0295 31.6997 13.8029 31.7372C13.5764 31.7748 13.3782 31.684 13.3499 31.5339C13.3216 31.3837 13.4852 31.2211 13.7054 31.1804C13.9256 31.1397 14.1301 31.2336 14.1584 31.3869Z" fill="white"/>
</g>
<defs>
<clipPath id="clip0_884_4258">
<rect width="38" height="38" fill="white"/>
</clipPath>
</defs>
</svg>
