<svg width="38" height="38" viewBox="0 0 38 38" fill="none" xmlns="http://www.w3.org/2000/svg">
<g clip-path="url(#clip0_884_4256)">
<path d="M11.9544 34.4377C26.2905 34.4377 34.1339 22.5575 34.1339 12.2581C34.1339 11.9241 34.1265 11.5827 34.1117 11.2488C35.6375 10.1453 36.9542 8.77859 38 7.21274C36.579 7.84497 35.0703 8.25787 33.5254 8.43735C35.152 7.46229 36.37 5.93051 36.9535 4.12598C35.4232 5.0329 33.7497 5.67265 32.0046 6.01782C30.8288 4.76849 29.2742 3.94128 27.5812 3.6641C25.8881 3.38691 24.1509 3.67518 22.6381 4.48434C21.1253 5.29349 19.9212 6.57847 19.2119 8.14059C18.5027 9.70272 18.3278 11.455 18.7143 13.1265C15.6156 12.971 12.5842 12.166 9.81664 10.7638C7.04904 9.36163 4.60701 7.39346 2.64887 4.98692C1.65363 6.70282 1.34909 8.73329 1.79713 10.6657C2.24517 12.598 3.41218 14.2873 5.06098 15.3902C3.82316 15.3509 2.61246 15.0176 1.52891 14.4179V14.5144C1.5278 16.3151 2.15032 18.0606 3.29066 19.4542C4.43099 20.8479 6.01876 21.8036 7.78406 22.1589C6.63742 22.4726 5.43397 22.5183 4.26684 22.2925C4.76497 23.8411 5.73416 25.1956 7.03914 26.1669C8.34412 27.1382 9.91978 27.6778 11.5462 27.7105C8.78501 29.8794 5.37411 31.0559 1.86289 31.0503C1.2402 31.0494 0.618132 31.0112 0 30.936C3.56702 33.2245 7.71642 34.4399 11.9544 34.4377Z" fill="white"/>
</g>
<defs>
<clipPath id="clip0_884_4256">
<rect width="38" height="38" fill="white"/>
</clipPath>
</defs>
</svg>
